<svg width="96" height="96" viewBox="0 0 96 96" fill="none" xmlns="http://www.w3.org/2000/svg">
  <rect x="8" y="8" width="80" height="80" rx="28" fill="#FBF8F4"/>
  <rect x="10" y="10" width="76" height="76" rx="26" stroke="#E67A2E" stroke-width="4"/>
  <path d="M35.909 61.78C30.205 61.78 26.053 58.394 24.809 53.017H32.715C33.303 55.101 34.86 56.099 36.99 56.099C38.792 56.099 40.104 55.287 40.104 53.812C40.104 52.512 39.039 51.864 35.909 51.118C29.697 49.659 25.627 47.984 25.627 42.345C25.627 36.854 29.975 33.5 35.712 33.5C41.284 33.5 45.027 36.706 46.074 41.936H38.349C37.86 40.264 36.761 39.412 35.188 39.412C33.615 39.412 32.582 40.191 32.582 41.458C32.582 42.694 33.697 43.275 36.892 44.037C43.4 45.53 47.091 47.368 47.091 52.911C47.091 58.583 42.562 61.78 35.909 61.78Z" fill="#211A16"/>
  <path d="M58.867 61.78C51.527 61.78 46.09 56.506 46.09 47.64C46.09 38.773 51.527 33.5 58.867 33.5C65.124 33.5 70.103 37.032 71.627 43.014H63.549C62.699 40.822 60.816 39.494 58.44 39.494C54.763 39.494 52.908 42.296 52.908 47.64C52.908 52.983 54.763 55.785 58.44 55.785C60.816 55.785 62.699 54.457 63.549 52.266H71.627C70.103 58.247 65.124 61.78 58.867 61.78Z" fill="#211A16"/>
</svg>
